<?xml version="1.0" standalone="no"?>
<!DOCTYPE svg PUBLIC "-//W3C//DTD SVG 20010904//EN"
 "http://www.w3.org/TR/2001/REC-SVG-20010904/DTD/svg10.dtd">
<svg version="1.0" xmlns="http://www.w3.org/2000/svg"
 width="719.000000pt" height="695.000000pt" viewBox="0 0 719.000000 695.000000"
 preserveAspectRatio="xMidYMid meet">

<g transform="translate(0.000000,695.000000) scale(0.100000,-0.100000)"
fill="#000000" stroke="none">
<path d="M4930 6574 c-106 -19 -207 -64 -278 -123 -45 -37 -142 -158 -180
-224 -35 -60 -52 -146 -52 -259 0 -123 18 -202 61 -264 39 -57 232 -249 282
-281 64 -41 179 -65 272 -58 104 8 144 19 233 62 111 55 222 169 271 278 43
97 52 139 52 272 0 126 -2 136 -33 215 -38 98 -41 101 -137 196 -94 93 -138
123 -231 156 -73 27 -199 41 -260 30z"/>
<path d="M3937 6054 c-3 -3 -66 -6 -139 -5 -82 0 -127 -3 -119 -8 26 -17 -54
-24 -157 -15 l-97 9 120 5 120 6 -132 2 c-73 1 -133 0 -133 -2 0 -3 7 -11 15
-19 13 -13 11 -17 -18 -27 -44 -16 -129 -31 -210 -37 -61 -4 -69 -7 -78 -30
-8 -21 -14 -24 -44 -20 -38 5 -39 4 -35 -60 1 -32 1 -33 -40 -33 -31 0 -41 -4
-37 -13 4 -10 -3 -12 -24 -9 -28 4 -29 3 -30 -39 0 -24 -3 -38 -6 -31 -2 6 -9
10 -14 6 -5 -3 -9 15 -8 44 2 43 5 49 21 44 10 -2 18 1 18 8 0 9 -10 11 -31 6
-35 -7 -61 8 -52 30 4 10 -2 14 -20 14 -17 0 -26 -7 -30 -21 -3 -12 -10 -18
-16 -14 -6 3 -16 3 -21 0 -7 -4 1 -27 20 -61 17 -30 28 -59 25 -65 -7 -10 42
-74 56 -74 4 0 11 -4 16 -9 5 -5 3 -6 -4 -2 -7 4 -13 5 -13 2 0 -13 35 -76 42
-76 4 0 8 -8 8 -18 0 -11 9 -27 20 -37 10 -9 18 -20 17 -24 -2 -8 25 -74 33
-81 4 -3 28 -49 54 -103 26 -54 54 -101 61 -104 8 -2 19 -20 25 -38 12 -38 38
-48 73 -30 13 7 45 15 70 19 26 4 49 11 51 15 3 4 38 13 78 20 40 6 111 18
158 26 111 19 247 12 470 -25 86 -14 264 -71 284 -91 6 -5 16 -9 24 -9 20 0
118 -48 132 -65 7 -8 16 -15 21 -15 5 0 43 -23 84 -52 89 -60 266 -233 345
-338 30 -40 61 -78 68 -85 6 -8 12 -16 12 -19 0 -4 14 -25 30 -48 17 -22 30
-48 30 -56 0 -8 7 -20 16 -26 8 -7 18 -31 21 -54 3 -23 9 -42 13 -42 5 0 11
-18 15 -40 4 -22 10 -40 15 -40 9 0 33 -77 51 -168 9 -43 20 -67 34 -76 23
-15 225 -15 628 -1 191 7 199 8 209 29 6 15 6 40 -2 77 -6 30 -15 79 -20 109
-4 30 -15 82 -24 115 -10 33 -22 78 -28 100 -5 22 -16 56 -23 75 -12 35 -24
68 -52 150 -9 25 -21 52 -28 60 -7 8 -18 32 -24 52 -7 21 -17 40 -22 43 -5 4
-9 13 -9 21 0 13 -76 143 -91 154 -3 3 -12 16 -19 29 -7 14 -17 30 -21 35 -5
6 -32 43 -60 81 -49 68 -69 87 -69 66 0 -6 -6 -8 -13 -5 -8 3 -12 16 -9 33 2
16 0 31 -5 34 -9 6 -73 -21 -83 -34 -3 -3 -20 -10 -39 -14 -18 -4 -42 -16 -52
-26 -10 -10 -29 -19 -41 -19 -13 0 -32 -7 -42 -15 -11 -8 -31 -15 -45 -16 -21
0 -23 -2 -8 -8 18 -6 18 -7 0 -22 -19 -16 -94 -26 -92 -12 5 30 -4 33 -83 33
-90 0 -238 24 -280 46 -15 8 -36 14 -46 14 -11 0 -25 6 -31 14 -7 8 -27 17
-47 20 -44 9 -148 79 -214 146 -14 14 -41 39 -60 55 -40 34 -100 108 -100 123
0 6 -15 31 -34 55 -34 45 -105 208 -112 256 -1 14 -8 73 -14 131 -7 58 -17
108 -23 112 -14 9 -121 11 -130 2z m1093 -1006 c0 -14 -8 -18 -34 -18 -34 0
-52 12 -42 28 2 4 21 8 40 8 28 0 36 -4 36 -18z"/>
<path d="M3097 5971 c-10 -12 -9 -14 6 -8 10 4 23 7 28 7 5 0 9 4 9 8 0 14
-30 10 -43 -7z"/>
<path d="M3078 5923 c7 -3 16 -2 19 1 4 3 -2 6 -13 5 -11 0 -14 -3 -6 -6z"/>
<path d="M2918 5883 c6 -2 18 -2 25 0 6 3 1 5 -13 5 -14 0 -19 -2 -12 -5z"/>
<path d="M935 4179 c-109 -7 -197 -38 -277 -97 -31 -23 -62 -42 -68 -42 -5 0
-10 -6 -10 -12 0 -7 -13 -25 -29 -41 -15 -15 -37 -44 -47 -65 -10 -20 -21 -39
-24 -42 -21 -18 -43 -129 -47 -236 -5 -98 -2 -131 12 -180 10 -32 20 -68 22
-78 2 -11 9 -27 16 -35 7 -9 19 -29 27 -45 16 -31 112 -133 145 -154 65 -40
197 -87 240 -85 209 12 200 11 237 45 33 31 35 37 31 83 l-3 50 55 29 c30 16
55 32 55 37 0 5 4 9 9 9 12 0 71 59 71 71 0 5 11 9 25 9 22 0 25 4 25 39 0 27
5 41 16 45 13 5 14 3 6 -6 -7 -9 -6 -17 3 -25 10 -9 17 -8 31 8 21 24 51 25
57 2 7 -25 12 164 8 270 -2 79 -7 96 -38 155 -19 37 -38 69 -42 72 -3 3 -15
22 -26 43 -11 20 -23 37 -27 37 -4 0 -40 22 -81 50 -120 81 -199 100 -372 89z"/>
<path d="M5166 3505 c-8 -9 -18 -32 -21 -53 -22 -142 -140 -422 -234 -557 -23
-33 -52 -76 -65 -95 -64 -96 -301 -297 -446 -378 -214 -120 -506 -190 -747
-178 -182 8 -242 18 -380 59 -67 20 -128 37 -136 37 -15 0 -57 -41 -57 -56 0
-6 -29 -59 -65 -119 -36 -59 -65 -109 -65 -111 0 -2 -14 -27 -31 -56 -18 -29
-42 -71 -54 -93 -12 -22 -57 -102 -99 -177 -92 -163 -93 -175 -13 -212 130
-62 216 -88 507 -157 73 -17 284 -33 435 -33 176 0 402 19 423 36 39 29 49 46
55 93 10 85 47 180 114 295 31 52 21 41 140 162 128 130 243 193 436 239 138
33 363 18 472 -30 85 -37 108 -37 146 1 95 94 244 312 335 488 54 106 114 239
114 254 0 6 6 23 14 38 13 24 57 193 105 403 12 50 21 113 21 141 0 45 -3 52
-25 62 -19 9 -148 12 -445 12 -363 0 -421 -2 -434 -15z"/>
<path d="M1470 3384 c0 -8 5 -12 10 -9 6 3 10 10 10 16 0 5 -4 9 -10 9 -5 0
-10 -7 -10 -16z"/>
<path d="M1188 3203 c-2 -10 -1 -33 2 -50 l5 -33 17 29 c15 28 15 31 -2 51
-16 19 -18 19 -22 3z"/>
<path d="M1245 3150 c3 -5 12 -10 20 -10 8 0 17 5 20 10 4 6 -5 10 -20 10 -15
0 -24 -4 -20 -10z"/>
</g>
</svg>
